<svg xmlns="http://www.w3.org/2000/svg" xmlns:xlink="http://www.w3.org/1999/xlink" version="1.1" width="256" height="256" viewBox="0 0 256 256" xml:space="preserve">
<desc>Created with Fabric.js 1.7.22</desc>
<defs>
</defs>
<g transform="translate(128 128) scale(0.72 0.72)" style="">
	<g style="stroke: none; stroke-width: 0; stroke-dasharray: none; stroke-linecap: butt; stroke-linejoin: miter; stroke-miterlimit: 10; fill: none; fill-rule: nonzero; opacity: 1;" transform="translate(-175.05 -175.05000000000004) scale(3.89 3.89)" >
	<path d="M 45.355 42.021 C 45.355 42.021 45.355 42.021 45.355 42.021 c -4.097 -0.488 -4.919 -2.116 -4.919 -4.585 c 0 -2.517 2.047 -4.565 4.564 -4.565 c 2.517 0 4.564 2.048 4.564 4.565 c 0 1.657 1.343 3 3 3 s 3 -1.343 3 -3 c 0 -4.783 -3.197 -8.828 -7.564 -10.125 v -0.869 c 0 -1.657 -1.343 -3 -3 -3 c -1.657 0 -3 1.343 -3 3 v 0.869 c -4.367 1.297 -7.564 5.342 -7.564 10.125 c 0 3.483 1.326 9.485 10.209 10.543 c 0 0 0.001 0 0.001 0 c 4.095 0.488 4.919 2.116 4.919 4.586 c 0 2.517 -2.048 4.564 -4.564 4.564 c -2.517 0 -4.564 -2.048 -4.564 -4.564 c 0 -1.657 -1.343 -3 -3 -3 s -3 1.343 -3 3 c 0 4.783 3.197 8.828 7.564 10.124 v 0.87 c 0 1.657 1.343 3 3 3 c 1.657 0 3 -1.343 3 -3 v -0.87 c 4.367 -1.297 7.564 -5.342 7.564 -10.124 C 55.564 49.081 54.238 43.079 45.355 42.021 z" style="stroke: none; stroke-width: 1; stroke-dasharray: none; stroke-linecap: butt; stroke-linejoin: miter; stroke-miterlimit: 10; fill: rgb(211,135,0); fill-rule: nonzero; opacity: 1;" transform=" matrix(1 0 0 1 0 0) " stroke-linecap="round" />
	<path d="M 45 90 C 20.187 90 0 69.813 0 45 C 0 20.187 20.187 0 45 0 c 24.813 0 45 20.187 45 45 C 90 69.813 69.813 90 45 90 z M 45 6 C 23.495 6 6 23.495 6 45 s 17.495 39 39 39 s 39 -17.495 39 -39 S 66.505 6 45 6 z" style="stroke: none; stroke-width: 1; stroke-dasharray: none; stroke-linecap: butt; stroke-linejoin: miter; stroke-miterlimit: 10; fill: rgb(255,200,67); fill-rule: nonzero; opacity: 1;" transform=" matrix(1 0 0 1 0 0) " stroke-linecap="round" />
	<path d="M 45 78.279 c -1.657 0 -3 -1.343 -3 -3 s 1.343 -3 3 -3 c 10.304 0 19.619 -5.705 24.31 -14.889 c 0.754 -1.478 2.564 -2.058 4.036 -1.308 c 1.476 0.754 2.062 2.561 1.308 4.036 C 68.932 71.321 57.569 78.279 45 78.279 z" style="stroke: none; stroke-width: 1; stroke-dasharray: none; stroke-linecap: butt; stroke-linejoin: miter; stroke-miterlimit: 10; fill: rgb(255,200,67); fill-rule: nonzero; opacity: 1;" transform=" matrix(1 0 0 1 0 0) " stroke-linecap="round" />
	<path d="M 74.896 52.849 c -0.159 0 -0.32 -0.012 -0.482 -0.038 c -1.636 -0.265 -2.747 -1.805 -2.483 -3.44 c 0.231 -1.431 0.349 -2.901 0.349 -4.37 c 0 -1.657 1.343 -3 3 -3 s 3 1.343 3 3 c 0 1.788 -0.143 3.58 -0.425 5.327 C 77.616 51.801 76.343 52.849 74.896 52.849 z" style="stroke: none; stroke-width: 1; stroke-dasharray: none; stroke-linecap: butt; stroke-linejoin: miter; stroke-miterlimit: 10; fill: rgb(255,200,67); fill-rule: nonzero; opacity: 1;" transform=" matrix(1 0 0 1 0 0) " stroke-linecap="round" />
	<path d="M 18.016 34.245 c -0.459 0 -0.925 -0.105 -1.362 -0.329 c -1.476 -0.753 -2.061 -2.561 -1.307 -4.036 C 21.069 18.679 32.431 11.721 45 11.721 c 1.657 0 3 1.343 3 3 s -1.343 3 -3 3 c -10.304 0 -19.619 5.705 -24.31 14.889 C 20.16 33.648 19.107 34.245 18.016 34.245 z" style="stroke: none; stroke-width: 1; stroke-dasharray: none; stroke-linecap: butt; stroke-linejoin: miter; stroke-miterlimit: 10; fill: rgb(255,200,67); fill-rule: nonzero; opacity: 1;" transform=" matrix(1 0 0 1 0 0) " stroke-linecap="round" />
	<path d="M 14.721 48 c -1.657 0 -3 -1.343 -3 -3 c 0 -1.783 0.143 -3.575 0.424 -5.325 c 0.263 -1.636 1.811 -2.748 3.438 -2.486 c 1.636 0.263 2.749 1.802 2.486 3.438 c -0.231 1.437 -0.348 2.908 -0.348 4.373 C 17.721 46.657 16.377 48 14.721 48 z" style="stroke: none; stroke-width: 1; stroke-dasharray: none; stroke-linecap: butt; stroke-linejoin: miter; stroke-miterlimit: 10; fill: rgb(255,200,67); fill-rule: nonzero; opacity: 1;" transform=" matrix(1 0 0 1 0 0) " stroke-linecap="round" />
</g>
</g>
</svg>